<?xml version="1.0" standalone="no"?>
<!DOCTYPE svg PUBLIC "-//W3C//DTD SVG 20010904//EN"
 "http://www.w3.org/TR/2001/REC-SVG-20010904/DTD/svg10.dtd">
<svg version="1.0" xmlns="http://www.w3.org/2000/svg"
 width="900.000000pt" height="891.000000pt" viewBox="0 0 900.000000 891.000000"
 preserveAspectRatio="xMidYMid meet">

<g transform="translate(0.000000,891.000000) scale(0.100000,-0.100000)"
fill="#000000" stroke="none">
<path d="M2778 8890 c-113 -28 -152 -52 -254 -154 -75 -74 -95 -102 -113 -151
-25 -66 -41 -182 -41 -293 l0 -73 -91 -162 c-50 -89 -111 -196 -134 -237 -23
-41 -75 -133 -115 -205 -40 -71 -92 -164 -115 -205 -23 -41 -75 -133 -115
-205 -40 -71 -89 -159 -110 -195 -20 -36 -110 -196 -199 -356 l-163 -291 -101
-27 c-56 -15 -136 -41 -178 -57 -197 -76 -374 -264 -444 -473 l-31 -91 -99 -8
c-55 -4 -125 -14 -154 -23 -133 -38 -243 -120 -283 -211 -26 -59 -37 -224 -37
-558 -1 -269 10 -440 32 -503 45 -130 164 -207 374 -240 l103 -16 20 -66 c21
-72 257 -905 325 -1150 24 -85 71 -254 105 -375 34 -121 84 -299 110 -395 27
-96 69 -251 95 -344 53 -193 123 -373 191 -490 133 -232 324 -412 549 -516
113 -52 177 -68 326 -79 181 -13 3049 -14 3049 -1 0 6 -9 28 -20 49 -25 50
-114 273 -131 329 -7 23 -17 46 -23 51 -6 5 -171 12 -366 16 -195 4 -358 10
-361 14 -4 3 -9 151 -13 328 l-6 322 324 3 c227 2 328 6 336 14 7 7 25 97 41
200 16 104 33 203 38 221 5 17 6 34 3 37 -3 3 -171 6 -374 6 l-368 0 0 330 0
330 523 0 522 1 55 77 c71 99 372 400 476 475 l81 59 32 186 c63 376 59 359
93 366 17 3 278 6 580 6 518 0 549 -1 544 -17 -25 -88 -35 -148 -27 -156 10
-10 168 -31 316 -42 129 -10 138 -5 169 98 14 46 34 91 44 101 11 9 55 28 98
42 113 37 170 69 230 129 85 85 84 77 84 652 l-1 492 -38 48 c-99 125 -206
180 -391 198 -119 12 -132 20 -164 108 -39 106 -130 240 -222 326 -97 91 -214
150 -373 190 -90 23 -118 34 -131 52 -10 13 -79 134 -155 269 -75 135 -157
279 -180 320 -64 113 -208 369 -345 615 -68 121 -175 312 -239 425 l-116 205
-5 151 -5 151 -42 85 c-115 231 -363 343 -617 278 -107 -27 -169 -63 -252
-145 -112 -111 -173 -266 -160 -402 15 -146 68 -250 194 -379 98 -101 209
-276 459 -719 294 -523 435 -774 571 -1017 l161 -288 -40 -105 -41 -105 -42 0
c-22 0 -899 -3 -1948 -7 l-1908 -6 -14 34 c-8 19 -27 70 -42 114 l-27 80 118
210 c65 116 170 302 233 415 656 1170 723 1281 844 1391 130 119 186 237 187
389 2 272 -177 494 -446 554 -90 20 -129 19 -225 -4z m-1277 -3034 c185 -93
255 -307 163 -502 -35 -75 -83 -120 -172 -162 -66 -31 -84 -36 -151 -35 -150
0 -267 77 -338 221 -32 64 -38 86 -38 142 0 82 41 173 117 255 82 90 151 116
284 111 64 -3 93 -10 135 -30z m5512 -1 c71 -35 140 -107 175 -183 23 -49 27
-70 27 -147 0 -78 -4 -97 -28 -146 -95 -195 -313 -275 -499 -184 -106 52 -179
155 -200 280 -25 148 57 301 197 373 76 38 93 42 185 39 70 -3 95 -9 143 -32z
m-1385 -1710 c6 -6 -13 -138 -47 -340 l-56 -330 -582 -3 -583 -2 1 282 c0 272
7 379 23 395 21 21 1225 19 1244 -2z m-3479 0 c5 -5 34 -153 63 -327 43 -259
50 -320 40 -330 -10 -10 -126 -14 -540 -16 l-527 -3 -34 123 c-18 68 -58 213
-88 323 -29 110 -56 208 -59 217 -3 10 2 18 13 21 36 10 1122 2 1132 -8z
m1744 -107 c4 -66 7 -222 7 -345 l0 -223 -580 0 c-357 0 -580 4 -580 9 0 6
-20 127 -45 271 -24 144 -47 295 -51 336 l-7 74 625 0 625 0 6 -122z m-1512
-1213 c45 -274 72 -439 77 -468 l4 -27 -477 2 -478 3 -54 190 c-30 105 -70
243 -89 309 -19 65 -33 125 -30 132 7 18 69 20 581 20 l439 -1 27 -160z m1519
-165 l0 -330 -484 0 -484 0 -6 28 c-3 15 -26 152 -51 305 -25 153 -48 289 -51
303 l-6 24 541 0 541 0 0 -330z m-1368 -823 c16 -17 114 -607 105 -632 -7 -16
-22 -17 -200 -13 -160 4 -203 9 -258 27 -125 40 -277 162 -381 306 -38 52
-138 249 -138 270 0 20 29 38 73 46 23 3 209 7 414 8 298 1 374 -2 385 -12z
m1368 -319 l0 -333 -387 5 c-214 3 -389 7 -390 8 -14 13 -108 620 -98 630 14
14 133 19 498 21 l377 1 0 -332z"/>
<path d="M7021 3508 c-236 -29 -576 -157 -764 -287 -163 -113 -367 -318 -490
-492 -116 -165 -233 -461 -271 -689 -85 -512 71 -1045 424 -1447 283 -325 708
-546 1116 -584 237 -21 492 -1 689 56 328 95 589 263 832 535 403 451 533
1024 374 1641 -111 432 -448 846 -871 1072 -305 162 -702 237 -1039 195z m320
-794 c61 -30 106 -73 123 -114 20 -49 36 -186 36 -305 0 -49 3 -133 6 -186 l7
-96 251 -6 c138 -3 267 -10 287 -16 47 -15 115 -74 140 -123 11 -22 23 -64 26
-93 9 -88 -53 -195 -141 -243 -27 -15 -68 -17 -298 -20 l-268 -3 0 -27 c-1
-135 -22 -504 -29 -531 -15 -48 -55 -97 -108 -128 -36 -21 -62 -27 -122 -31
-90 -5 -123 8 -206 82 l-50 45 -6 290 c-3 160 -7 292 -10 295 -2 2 -134 6
-292 8 l-289 3 -39 45 c-80 90 -93 116 -93 183 1 130 56 217 156 244 36 9 136
16 309 20 l256 6 2 251 c1 299 8 331 77 400 73 74 189 95 275 50z"/>
</g>
</svg>
